<svg width="26" height="26" viewBox="0 0 26 26" fill="none" xmlns="http://www.w3.org/2000/svg">
<g clip-path="url(#clip0_63_10)">
<path d="M0 6.49997V9.38886H26V6.49997C26 5.73379 25.6956 4.99899 25.1539 4.45722C24.6121 3.91545 23.8773 3.61108 23.1111 3.61108H2.88889C2.12271 3.61108 1.38791 3.91545 0.846136 4.45722C0.304364 4.99899 0 5.73379 0 6.49997Z" fill="#0099B5"/>
<path d="M26 19.5V16.6111H0V19.5C0 20.2662 0.304364 21.001 0.846136 21.5427C1.38791 22.0845 2.12271 22.3889 2.88889 22.3889H23.1111C23.8773 22.3889 24.6121 22.0845 25.1539 21.5427C25.6956 21.001 26 20.2662 26 19.5Z" fill="#1EB53A"/>
<path d="M0 9.38892H26V10.4722H0V9.38892ZM0 15.5278H26V16.6111H0V15.5278Z" fill="#CE1126"/>
<path d="M0 13V15.5278H26V10.4722H0V13Z" fill="#EEEEEE"/>
<path d="M3.03335 6.61558C3.03341 6.08311 3.22203 5.56787 3.56576 5.16122C3.90949 4.75456 4.38611 4.48277 4.91113 4.39402C4.58793 4.33916 4.25665 4.35548 3.9404 4.44184C3.62416 4.52821 3.33057 4.68254 3.08011 4.89406C2.82966 5.10558 2.62837 5.36921 2.4903 5.66654C2.35223 5.96387 2.2807 6.28775 2.2807 6.61558C2.2807 6.9434 2.35223 7.26728 2.4903 7.56461C2.62837 7.86194 2.82966 8.12557 3.08011 8.33709C3.33057 8.54862 3.62416 8.70295 3.9404 8.78931C4.25665 8.87567 4.58793 8.89199 4.91113 8.83713C4.38611 8.74839 3.90949 8.47659 3.56576 8.06994C3.22203 7.66328 3.03341 7.14804 3.03335 6.61558ZM6.41552 8.27885L6.31441 7.96758L6.2133 8.27885H5.88541L6.15046 8.47169L6.04935 8.78297L6.31441 8.59013L6.57874 8.78297L6.47763 8.47169L6.74269 8.27885H6.41552ZM8.36696 8.27885L8.26585 7.96758L8.16474 8.27885H7.83757L8.10263 8.47169L8.00152 8.78297L8.26585 8.59013L8.53091 8.78297L8.4298 8.47169L8.69485 8.27885H8.36696ZM8.26585 6.16491L8.16474 6.47619H7.83757L8.10263 6.66902L8.00152 6.9803L8.26585 6.78747L8.53091 6.9803L8.4298 6.66902L8.69485 6.47619H8.36696L8.26585 6.16491ZM10.3191 8.27885L10.218 7.96758L10.1169 8.27885H9.78974L10.0541 8.47169L9.95296 8.78297L10.218 8.59013L10.4831 8.78297L10.382 8.47169L10.6463 8.27885H10.3191ZM10.218 6.16491L10.1169 6.47619H9.78974L10.0541 6.66902L9.95296 6.9803L10.218 6.78747L10.4831 6.9803L10.382 6.66902L10.6463 6.47619H10.3191L10.218 6.16491ZM10.218 4.36224L10.1169 4.67352H9.78974L10.0541 4.86635L9.95296 5.17763L10.218 4.9848L10.4831 5.17763L10.382 4.86635L10.6463 4.67352H10.3191L10.218 4.36224ZM12.2713 8.27885L12.1702 7.96758L12.0691 8.27885H11.7412L12.0062 8.47169L11.9051 8.78297L12.1702 8.59013L12.4345 8.78297L12.3334 8.47169L12.5985 8.27885H12.2713ZM12.1702 6.16491L12.0691 6.47619H11.7412L12.0062 6.66902L11.9051 6.9803L12.1702 6.78747L12.4345 6.9803L12.3334 6.66902L12.5985 6.47619H12.2713L12.1702 6.16491ZM12.1702 4.36224L12.0691 4.67352H11.7412L12.0062 4.86635L11.9051 5.17763L12.1702 4.9848L12.4345 5.17763L12.3334 4.86635L12.5985 4.67352H12.2713L12.1702 4.36224ZM14.2227 8.27885L14.1216 7.96758L14.0205 8.27885H13.6934L13.9584 8.47169L13.8573 8.78297L14.1216 8.59013L14.3867 8.78297L14.2856 8.47169L14.5506 8.27885H14.2227ZM14.1216 6.16491L14.0205 6.47619H13.6934L13.9584 6.66902L13.8573 6.9803L14.1216 6.78747L14.3867 6.9803L14.2856 6.66902L14.5506 6.47619H14.2227L14.1216 6.16491ZM14.1216 4.36224L14.0205 4.67352H13.6934L13.9584 4.86635L13.8573 5.17763L14.1216 4.9848L14.3867 5.17763L14.2856 4.86635L14.5506 4.67352H14.2227L14.1216 4.36224Z" fill="white"/>
</g>
<defs>
<clipPath id="clip0_63_10">
<rect width="26" height="26" fill="white"/>
</clipPath>
</defs>
</svg>
