<svg width="253" height="33" viewBox="0 0 253 33" fill="none" xmlns="http://www.w3.org/2000/svg">
<path d="M10.8869 6.42796C12.8925 6.42796 14.7194 6.91879 16.3676 7.90047C18.0157 8.87222 19.3313 10.1861 20.3142 11.842C21.2972 13.4881 21.7887 15.3126 21.7887 17.3156C21.7887 19.3186 21.2972 21.1431 20.3142 22.7891C19.3313 24.4352 18.0157 25.749 16.3676 26.7307C14.7194 27.7124 12.8925 28.2032 10.8869 28.2032C8.88128 28.2032 7.05438 27.7124 5.40621 26.7307C3.75804 25.749 2.44248 24.4352 1.45953 22.7891C0.486509 21.1431 0 19.3186 0 17.3156C0 15.3126 0.486509 13.4881 1.45953 11.842C2.44248 10.1861 3.75804 8.87222 5.40621 7.90047C7.05438 6.91879 8.88128 6.42796 10.8869 6.42796ZM15.891 24.4253C16.8739 23.7906 17.559 22.8933 17.9462 21.7331C18.3335 20.563 18.4129 19.269 18.1845 17.851C17.9562 16.4232 17.415 15.0101 16.5612 13.612C15.6775 12.2238 14.6449 11.1132 13.4634 10.2803C12.2918 9.44734 11.0954 8.94659 9.87415 8.77802C8.66284 8.60945 7.55579 8.8276 6.55298 9.43247C5.57003 10.0671 4.88495 10.9694 4.49773 12.1395C4.11051 13.2997 4.03108 14.5887 4.25944 16.0067C4.4878 17.4247 5.02892 18.8377 5.88279 20.2457C6.76645 21.6339 7.79408 22.7445 8.96567 23.5774C10.1373 24.4104 11.3337 24.9111 12.5549 25.0797C13.7762 25.2483 14.8882 25.0301 15.891 24.4253Z" fill="white"/>
<path d="M35.535 16.8396C36.6173 17.2759 37.4414 17.975 38.0073 18.9368C38.5832 19.8887 38.7917 20.9448 38.6328 22.1049C38.6129 22.2438 38.5832 22.3727 38.5434 22.4917C38.2257 24.0286 37.5506 25.2532 36.518 26.1655C35.4854 27.0777 34.279 27.6777 32.8989 27.9652C31.5188 28.2429 30.1437 28.2131 28.7735 27.876C27.4034 27.5388 26.2219 26.8943 25.229 25.9424C24.246 24.9905 23.6255 23.7311 23.3673 22.1644H27.9842C28.0339 23.513 28.3268 24.5393 28.8629 25.2433C29.409 25.9374 30.0544 26.3489 30.799 26.4778C31.5437 26.5968 32.2436 26.4679 32.8989 26.0911C33.5642 25.7143 34.0408 25.1243 34.3287 24.3211C34.6067 23.4188 34.5422 22.566 34.1351 21.7628C33.728 20.9597 33.0826 20.3796 32.199 20.0226C30.3919 19.3186 28.4757 18.5699 26.4502 17.7767C25.368 17.3404 24.5389 16.6463 23.9631 15.6943C23.3971 14.7325 23.1936 13.6765 23.3524 12.5262C23.3624 12.4568 23.3723 12.3874 23.3822 12.318C23.4021 12.2486 23.417 12.1841 23.4269 12.1246C23.7744 10.5579 24.4694 9.31348 25.5119 8.3913C26.5545 7.46913 27.7658 6.86922 29.1459 6.59157C30.5359 6.31393 31.911 6.35359 33.2713 6.71056C34.6414 7.06753 35.818 7.73685 36.8009 8.71852C37.7839 9.69028 38.3995 10.9744 38.6477 12.5708H33.8372C33.728 11.024 33.3011 9.93322 32.5564 9.2986C31.8217 8.66399 31.0125 8.42601 30.1288 8.58466C29.2551 8.74331 28.565 9.23415 28.0587 10.0572C27.602 10.9496 27.5473 11.8321 27.8949 12.7047C28.2523 13.5773 28.8927 14.2119 29.8161 14.6085L32.1096 15.501L35.535 16.8396Z" fill="white"/>
<path d="M51.0686 6.42796C53.0742 6.42796 54.9011 6.91879 56.5493 7.90047C58.1974 8.87222 59.513 10.1861 60.4959 11.842C61.4789 13.4881 61.9704 15.3126 61.9704 17.3156C61.9704 19.3186 61.4789 21.1431 60.4959 22.7891C59.513 24.4352 58.1974 25.749 56.5493 26.7307C54.9011 27.7124 53.0742 28.2032 51.0686 28.2032C49.063 28.2032 47.2361 27.7124 45.5879 26.7307C43.9397 25.749 42.6242 24.4352 41.6412 22.7891C40.6682 21.1431 40.1817 19.3186 40.1817 17.3156C40.1817 15.3126 40.6682 13.4881 41.6412 11.842C42.6242 10.1861 43.9397 8.87222 45.5879 7.90047C47.2361 6.91879 49.063 6.42796 51.0686 6.42796ZM56.0727 24.4253C57.0556 23.7906 57.7407 22.8933 58.1279 21.7331C58.5151 20.563 58.5946 19.269 58.3662 17.851C58.1379 16.4232 57.5967 15.0101 56.7429 13.612C55.8592 12.2238 54.8266 11.1132 53.6451 10.2803C52.4735 9.44734 51.2771 8.94659 50.0558 8.77802C48.8445 8.60945 47.7375 8.8276 46.7347 9.43247C45.7517 10.0671 45.0666 10.9694 44.6794 12.1395C44.2922 13.2997 44.2128 14.5887 44.4411 16.0067C44.6695 17.4247 45.2106 18.8377 46.0645 20.2457C46.9481 21.6339 47.9758 22.7445 49.1474 23.5774C50.319 24.4104 51.5154 24.9111 52.7366 25.0797C53.9578 25.2483 55.0699 25.0301 56.0727 24.4253Z" fill="white"/>
<path d="M77.489 26.3737V6.65107H81.7484V27.995H74.1976L73.7359 26.3737L68.5382 8.28718H67.734V27.995H63.4746V6.65107H70.8169L71.2786 8.28718L76.4614 26.3737H77.489Z" fill="white"/>
<path d="M149.091 16.738C150.173 17.1743 150.997 17.8733 151.563 18.8352C152.139 19.7871 152.347 20.8431 152.188 22.0033C152.168 22.1421 152.139 22.271 152.099 22.39C151.781 23.927 151.106 25.1516 150.074 26.0639C149.041 26.9761 147.835 27.576 146.454 27.8636C145.074 28.1412 143.699 28.1115 142.329 27.7743C140.959 27.4372 139.777 26.7927 138.785 25.8407C137.802 24.8888 137.181 23.6295 136.923 22.0628H141.54C141.589 23.4114 141.882 24.4376 142.418 25.1417C142.965 25.8358 143.61 26.2473 144.355 26.3762C145.099 26.4952 145.799 26.3663 146.454 25.9895C147.12 25.6127 147.596 25.0227 147.884 24.2195C148.162 23.3172 148.098 22.4644 147.691 21.6612C147.284 20.858 146.638 20.2779 145.755 19.921C143.947 19.2169 142.031 18.4683 140.006 17.675C138.924 17.2387 138.094 16.5446 137.519 15.5927C136.953 14.6309 136.749 13.5748 136.908 12.4246C136.918 12.3552 136.928 12.2858 136.938 12.2163C136.958 12.1469 136.973 12.0825 136.982 12.023C137.33 10.4563 138.025 9.21184 139.067 8.28966C140.11 7.36749 141.321 6.76758 142.701 6.48993C144.091 6.21229 145.467 6.25195 146.827 6.60892C148.197 6.9659 149.374 7.63522 150.356 8.61689C151.339 9.58864 151.955 10.8727 152.203 12.4692H147.393C147.284 10.9223 146.857 9.83158 146.112 9.19697C145.377 8.56235 144.568 8.32437 143.684 8.48302C142.811 8.64168 142.121 9.13251 141.614 9.95553C141.157 10.848 141.103 11.7305 141.45 12.6031C141.808 13.4757 142.448 14.1103 143.372 14.5069L145.665 15.3993L149.091 16.738Z" fill="white"/>
<path d="M160.216 9.44982C158.756 10.4315 157.962 11.9288 157.833 13.9417C157.714 15.9447 158.285 18.0023 159.546 20.1143C160.886 22.1867 162.484 23.6146 164.341 24.398C166.208 25.1714 167.901 25.1218 169.42 24.2492C170.472 23.5651 171.177 22.5834 171.535 21.3042H174.439C173.893 22.623 173.128 23.7832 172.145 24.7847C171.162 25.7763 170.015 26.5547 168.705 27.1199C167.394 27.6851 165.989 27.9677 164.49 27.9677C162.514 27.9677 160.712 27.4868 159.084 26.5249C157.456 25.5532 156.155 24.2542 155.182 22.628C154.219 21.0018 153.737 19.2021 153.737 17.2288C153.737 15.2456 154.219 13.441 155.182 11.8148C156.155 10.1886 157.456 8.89453 159.084 7.93269C160.712 6.97085 162.514 6.48993 164.49 6.48993C165.999 6.48993 167.409 6.77749 168.72 7.35261C170.04 7.92773 171.192 8.721 172.175 9.73242C173.168 10.7339 173.932 11.899 174.468 13.2278H169.867C168.516 11.2743 166.938 9.94561 165.13 9.24159C163.333 8.52764 161.695 8.59706 160.216 9.44982Z" fill="white"/>
<path d="M189.421 18.5377H180.217V27.8933H175.958V6.53455H180.217V15.9199H189.421V6.54943H193.681V27.9082H189.421V18.5377Z" fill="white"/>
<path d="M206.057 6.32632C208.062 6.32632 209.889 6.81716 211.538 7.79883C213.186 8.77058 214.501 10.0844 215.484 11.7404C216.467 13.3864 216.959 15.2109 216.959 17.2139C216.959 19.2169 216.467 21.0415 215.484 22.6875C214.501 24.3335 213.186 25.6474 211.538 26.6291C209.889 27.6107 208.062 28.1016 206.057 28.1016C204.051 28.1016 202.224 27.6107 200.576 26.6291C198.928 25.6474 197.612 24.3335 196.629 22.6875C195.656 21.0415 195.17 19.2169 195.17 17.2139C195.17 15.2109 195.656 13.3864 196.629 11.7404C197.612 10.0844 198.928 8.77058 200.576 7.79883C202.224 6.81716 204.051 6.32632 206.057 6.32632ZM211.061 24.3236C212.044 23.689 212.729 22.7916 213.116 21.6315C213.503 20.4614 213.583 19.1674 213.354 17.7494C213.126 16.3215 212.585 14.9085 211.731 13.5104C210.847 12.1221 209.815 11.0116 208.633 10.1786C207.462 9.3457 206.265 8.84495 205.044 8.67638C203.833 8.50781 202.726 8.72596 201.723 9.33083C200.74 9.96544 200.055 10.8678 199.668 12.0379C199.28 13.198 199.201 14.4871 199.429 15.905C199.658 17.323 200.199 18.736 201.053 20.1441C201.936 21.5323 202.964 22.6429 204.136 23.4758C205.307 24.3087 206.504 24.8095 207.725 24.9781C208.946 25.1466 210.058 24.9285 211.061 24.3236Z" fill="white"/>
<path d="M229.35 6.32632C231.355 6.32632 233.182 6.81716 234.83 7.79883C236.479 8.77058 237.794 10.0844 238.777 11.7404C239.76 13.3864 240.251 15.2109 240.251 17.2139C240.251 19.2169 239.76 21.0415 238.777 22.6875C237.794 24.3335 236.479 25.6474 234.83 26.6291C233.182 27.6107 231.355 28.1016 229.35 28.1016C227.344 28.1016 225.517 27.6107 223.869 26.6291C222.221 25.6474 220.905 24.3335 219.922 22.6875C218.949 21.0415 218.463 19.2169 218.463 17.2139C218.463 15.2109 218.949 13.3864 219.922 11.7404C220.905 10.0844 222.221 8.77058 223.869 7.79883C225.517 6.81716 227.344 6.32632 229.35 6.32632ZM234.354 24.3236C235.337 23.689 236.022 22.7916 236.409 21.6315C236.796 20.4614 236.876 19.1674 236.647 17.7494C236.419 16.3215 235.878 14.9085 235.024 13.5104C234.14 12.1221 233.108 11.0116 231.926 10.1786C230.755 9.3457 229.558 8.84495 228.337 8.67638C227.126 8.50781 226.019 8.72596 225.016 9.33083C224.033 9.96544 223.348 10.8678 222.961 12.0379C222.573 13.198 222.494 14.4871 222.722 15.905C222.951 17.323 223.492 18.736 224.346 20.1441C225.229 21.5323 226.257 22.6429 227.428 23.4758C228.6 24.3087 229.796 24.8095 231.018 24.9781C232.239 25.1466 233.351 24.9285 234.354 24.3236Z" fill="white"/>
<path d="M241.756 27.8933V6.5643H246.015V25.2607H253V27.8933H241.756Z" fill="white"/>
<path d="M109.415 0L111.701 5.02425L115.739 1.25606L115.925 6.77118L121.098 4.83242L119.157 10.0011L124.679 10.1867L120.906 14.2168L125.937 16.5L120.906 18.7832L124.679 22.8154L119.157 23.001L121.098 28.1675L115.925 26.2288L115.739 31.7439L111.701 27.9758L109.415 33L107.131 27.9758L103.094 31.7439L102.908 26.2288L97.7325 28.1675L99.6758 23.001L94.1515 22.8154L97.9266 18.7832L92.8938 16.5L97.9266 14.2168L94.1515 10.1867L99.6758 10.0011L97.7325 4.83242L102.908 6.77118L103.094 1.25606L107.131 5.02425L109.415 0Z" fill="#0080FE"/>
</svg>
